<svg id="Layer_1" data-name="Layer 1" xmlns="http://www.w3.org/2000/svg" viewBox="0 0 525 115"><defs><style>.cls-1{fill:#fca311;}.cls-2{fill:#14213d;}</style></defs><path class="cls-1" d="M125.32,61.45h.55c7.52,0,14.51-6,14.51-13.52,0-.36,0-1.14,0-1.54A8.43,8.43,0,1,1,148.92,55h-1.44a13.52,13.52,0,0,0-13.56,13.56v1.33a8.43,8.43,0,1,1-8.6-8.43Z"/><path class="cls-1" d="M125.35,38.14a8.42,8.42,0,0,0-8.41,8.25c0,.4,0,1.18,0,1.54,0,7.52-7,13.52-14.52,13.52h-.75c-7.52,0-14.51-6-14.51-13.52,0-.36,0-1.14,0-1.54A8.43,8.43,0,1,0,78.61,55h1.44A13.52,13.52,0,0,1,93.61,68.55v1.33a8.43,8.43,0,0,0,16.86,0V68.55A13.52,13.52,0,0,1,124,55h1.44a8.42,8.42,0,0,0-.12-16.84Z"/><path class="cls-2" d="M78.77,61.45h-.55c-7.52,0-14.51-6-14.51-13.52,0-.36,0-1.14,0-1.54A8.43,8.43,0,1,0,55.17,55H56.6A13.52,13.52,0,0,1,70.17,68.55v1.33a8.43,8.43,0,1,0,8.6-8.43Z"/><path class="cls-2" d="M184.45,73.2v4h-4.88V36.69h5V55.62h.16a10.88,10.88,0,0,1,9.06-4.51c7.56,0,12.71,5.85,12.71,13.35s-5,13.46-12.82,13.46a10.89,10.89,0,0,1-9.16-4.72Zm8.42-17.9c-5.15,0-8.58,4.34-8.58,9.22s3.43,9.17,8.58,9.17c5.52,0,8.47-4.45,8.47-9.23S198.39,55.3,192.87,55.3Z"/><path class="cls-2" d="M213.34,51.81h4.77c.11,1.29.22,3.22.22,4.29h.16a8.6,8.6,0,0,1,7.77-5,7.7,7.7,0,0,1,2,.22L228,56a10.08,10.08,0,0,0-2.3-.27c-4.83,0-7.14,3.92-7.14,8.15V77.22h-5V57.28C213.55,55.94,213.5,53.47,213.34,51.81Z"/><path class="cls-2" d="M248.08,60.76c0-3.75-2.52-5.57-6.27-5.57a10.47,10.47,0,0,0-7.24,3l-2.68-3.22a15.14,15.14,0,0,1,10.4-3.81c7.29,0,10.62,4.35,10.62,10V72.18a27.82,27.82,0,0,0,.37,5h-4.56a16.93,16.93,0,0,1-.43-3.64h-.16a9.71,9.71,0,0,1-8.52,4.29c-4,0-9.22-2-9.22-7.83,0-7.67,9.11-8.58,17.69-8.58Zm-1.23,4.35c-5,0-11.32.53-11.32,4.82,0,3,2.68,4,5.2,4,4.72,0,7.35-3.16,7.35-7.45V65.11Z"/><path class="cls-2" d="M265.87,51.81c.11,1.29.22,3.11.22,4.18h.16a9.22,9.22,0,0,1,8.26-4.88c6.54,0,9.49,4.67,9.49,10.35V77.22h-5V63.12c0-4.12-1.13-7.77-5.79-7.77-4,0-6.81,3.32-6.81,8.36V77.22h-5V57.28c0-1.34-.06-3.81-.22-5.47Z"/><path class="cls-2" d="M303.61,77.92c-7.83,0-12.81-6-12.81-13.46s5.14-13.35,12.76-13.35a11,11,0,0,1,9.06,4.51h.11V36.69h5V77.22h-4.88v-4h-.11A10.84,10.84,0,0,1,303.61,77.92Zm.86-4.23c5.15,0,8.58-4.29,8.58-9.17s-3.43-9.22-8.58-9.22c-5.52,0-8.42,4.39-8.42,9.16S299,73.69,304.47,73.69Z"/><path class="cls-2" d="M328.43,51.81l5.73,19.41h.11l6.06-19.41h5.31l6.16,19.41h.11l5.74-19.41H363l-8.42,25.41h-5.26L343,58.14h-.11l-6.21,19.08h-5.26L323,51.81Z"/><path class="cls-2" d="M391.63,66H371.47a8.13,8.13,0,0,0,8.26,7.72,8.75,8.75,0,0,0,7.4-3.86l3.54,2.84a13.11,13.11,0,0,1-10.94,5.2c-7.72,0-13.41-5.36-13.41-13.35S372,51.11,379.46,51.11s12.22,5.1,12.22,13.19C391.68,64.84,391.68,65.43,391.63,66Zm-5-3.75c-.11-4-2.46-7.19-7.13-7.19a7.88,7.88,0,0,0-8,7.19Z"/><path class="cls-2" d="M414.2,60.76c0-3.75-2.52-5.57-6.28-5.57a10.43,10.43,0,0,0-7.23,3L398,54.92a15.14,15.14,0,0,1,10.4-3.81c7.29,0,10.61,4.35,10.61,10V72.18a27.74,27.74,0,0,0,.38,5h-4.56a16.32,16.32,0,0,1-.43-3.64h-.16a9.72,9.72,0,0,1-8.52,4.29c-4,0-9.23-2-9.23-7.83,0-7.67,9.12-8.58,17.7-8.58ZM413,65.11c-5,0-11.31.53-11.31,4.82,0,3,2.68,4,5.2,4,4.72,0,7.35-3.16,7.35-7.45V65.11Z"/><path class="cls-2" d="M439.39,77.22h-5.47L423.57,51.81h5.58l7.45,20h.11l7.51-20h5.36Z"/><path class="cls-2" d="M478.09,66H457.94a8.12,8.12,0,0,0,8.25,7.72,8.75,8.75,0,0,0,7.4-3.86l3.54,2.84a13.09,13.09,0,0,1-10.94,5.2c-7.72,0-13.4-5.36-13.4-13.35s5.68-13.46,13.13-13.46,12.23,5.1,12.23,13.19A17,17,0,0,1,478.09,66Zm-5-3.75c-.11-4-2.47-7.19-7.14-7.19a7.87,7.87,0,0,0-8,7.19Z"/></svg>